# xmcd
#
# Track frame offsets: 
#        150
#        14412
#        29452
#        49121
#        65956
#        83040
#        98720
#        108726
#        120330
#        133379
#        145681
#        162993
#
# Disc length: 2279 seconds
#
# Revision: 0
# Processed by: cddbd v1.5.2PL0 Copyright (c) Steve Scherf et al.
# Submitted via: ExactAudioCopy v1.2
#
DISCID=a808e50c
DTITLE=Barry Goldberg - In the Groove
DYEAR=2018
DGENRE=Blues
TTITLE0=Guess I Had Enough of You
TTITLE1=The Mighty Mezz
TTITLE2=Westside Girl
TTITLE3=In the Groove
TTITLE4=Mighty Low
TTITLE5=Dumplin's
TTITLE6=Bullwhip Rock
TTITLE7=Lazy
TTITLE8=Tall Cool One
TTITLE9=Slow Walk
TTITLE10=Ghosts in My Basement
TTITLE11=Alberta
EXTD=
EXTT0=
EXTT1=
EXTT2=
EXTT3=
EXTT4=
EXTT5=
EXTT6=
EXTT7=
EXTT8=
EXTT9=
EXTT10=
EXTT11=
PLAYORDER=
